<?xml version="1.0" encoding="utf-8"?>
<!-- 配布元: https://www.shoshinsha-design.com/2021/10/%E3%83%9E%E3%82%A4%E3%82%AF%E3%83%A9%E3%81%AE%E3%82%AF%E3%83%AA%E3%83%BC%E3%83%91%E3%83%BC-%E3%82%A2%E3%82%A4%E3%82%B3%E3%83%B3/.html#google_vignette -->
<!-- Generator: Adobe Illustrator 26.0.0, SVG Export Plug-In . SVG Version: 6.00 Build 0)  -->
<svg version="1.1" id="レイヤー_1" xmlns="http://www.w3.org/2000/svg" xmlns:xlink="http://www.w3.org/1999/xlink" x="0px"
	 y="0px" viewBox="0 0 1480 1570.9" style="enable-background:new 0 0 1480 1570.9;" xml:space="preserve">
<style type="text/css">
	.st0{fill:#6D9E46;}
	.st1{fill:#588233;}
	.st2{fill:#5B8933;}
	.st3{fill:#6ECF32;}
	.st4{fill:#3F3838;}
	.st5{fill:#98E464;}
	.st6{fill:#5DB226;}
	.st7{fill:#51814C;}
</style>
<g>
	<g>
		<rect x="786.4" y="726.4" class="st0" width="41.2" height="172.7"/>
		<rect x="827.6" y="898.2" class="st0" width="43.5" height="66.7"/>
		<rect x="786" y="898.2" class="st1" width="41.7" height="66.7"/>
		<rect x="786.4" y="726.4" class="st2" width="41.2" height="21.8"/>
	</g>
	<rect x="628.3" y="551" class="st3" width="160.2" height="175.4"/>
	<rect x="788.5" y="551" class="st0" width="62" height="175.4"/>
	<rect x="650.6" y="593.6" class="st4" width="38" height="45.4"/>
	<rect x="729.9" y="593.6" class="st4" width="38" height="45.4"/>
	<g>
		<rect x="688.5" y="638.9" class="st4" width="41.7" height="57.4"/>
		<rect x="666.8" y="660.7" class="st4" width="22" height="62.5"/>
		<rect x="730.2" y="660.7" class="st4" width="21.3" height="62.5"/>
	</g>
	<rect x="645.9" y="726" class="st3" width="142.1" height="172.2"/>
	<rect x="606.1" y="898.2" class="st3" width="58.3" height="66.7"/>
	<rect x="606.1" y="898.2" class="st5" width="57.9" height="25.5"/>
	<rect x="664.4" y="898.2" class="st0" width="22.7" height="66.7"/>
	<rect x="687.1" y="898.2" class="st3" width="58.3" height="66.7"/>
	<rect x="687.1" y="898.2" class="st5" width="57.9" height="25.5"/>
	<rect x="745.5" y="898.2" class="st0" width="43.5" height="66.7"/>
	<rect x="645.9" y="726.4" class="st6" width="142.6" height="21.8"/>
	<rect x="809.1" y="597.5" class="st7" width="20.1" height="25"/>
	<rect x="809.1" y="665.6" class="st7" width="20.1" height="25"/>
	<rect x="830.6" y="575.3" class="st7" width="16" height="22.9"/>
	<rect x="748.7" y="554.5" class="st5" width="22.2" height="22.9"/>
	<g>
		<rect x="648" y="554.5" class="st5" width="20.1" height="31.9"/>
		<rect x="632" y="554.5" class="st5" width="21.5" height="21.5"/>
	</g>
	<rect x="645.2" y="639.9" class="st5" width="18.1" height="20.1"/>
	<g>
		<rect x="754.4" y="706.7" class="st5" width="16.3" height="16.3"/>
		<rect x="770.7" y="690.4" class="st5" width="16.3" height="16.3"/>
	</g>
	<rect x="765.4" y="748.9" class="st5" width="22.2" height="22.2"/>
	<g>
		<rect x="648" y="750.3" class="st5" width="17.4" height="17.4"/>
		<rect x="665.4" y="767.6" class="st5" width="22.9" height="44.4"/>
	</g>
	<rect x="688.3" y="812.1" class="st5" width="20.1" height="20.1"/>
	<rect x="648" y="839.8" class="st5" width="18.7" height="18.7"/>
	<g>
		<rect x="746.3" y="829.8" class="st5" width="20.1" height="45.8"/>
		<rect x="766.4" y="875.6" class="st5" width="18.7" height="18.7"/>
	</g>
</g>
</svg>
